<svg xmlns="http://www.w3.org/2000/svg" xmlns:xlink="http://www.w3.org/1999/xlink" width="500" zoomAndPan="magnify" viewBox="0 0 375 374.999991" height="500" preserveAspectRatio="xMidYMid meet" version="1.0"><defs><g/><clipPath id="db214a4379"><path d="M 172.800781 99.6875 L 333.851562 99.6875 L 333.851562 260.738281 L 172.800781 260.738281 Z M 172.800781 99.6875 " clip-rule="nonzero"/></clipPath><clipPath id="8644134828"><path d="M 66.957031 205.117188 L 337.5 205.117188 L 337.5 208.441406 L 66.957031 208.441406 Z M 66.957031 205.117188 " clip-rule="nonzero"/></clipPath></defs><rect x="-37.5" width="450" fill="#ffffff" y="-37.499999" height="449.999989" fill-opacity="1"/><rect x="-37.5" width="450" fill="#000000" y="-37.499999" height="449.999989" fill-opacity="1"/><g clip-path="url(#db214a4379)"><path stroke-linecap="butt" transform="matrix(0.75, 0, 0, 0.75, 172.801356, 99.689429)" fill="none" stroke-linejoin="miter" d="M -0.000766804 -0.0025726 L 214.733609 -0.0025726 L 214.733609 214.731803 L -0.000766804 214.731803 Z M -0.000766804 -0.0025726 " stroke="#000000" stroke-width="2" stroke-opacity="1" stroke-miterlimit="4"/></g><g clip-path="url(#8644134828)"><path fill="#00bf63" d="M 66.957031 205.117188 L 337.5 205.117188 L 337.5 208.441406 L 66.957031 208.441406 Z M 66.957031 205.117188 " fill-opacity="1" fill-rule="nonzero"/></g><g fill="#ff0000" fill-opacity="1"><g transform="translate(116.699418, 204.931568)"><g><path d="M 14.390625 -25.3125 C 16.179688 -25.3125 17.867188 -24.972656 19.453125 -24.296875 C 21.046875 -23.628906 22.457031 -22.695312 23.6875 -21.5 C 24.925781 -20.3125 25.898438 -18.941406 26.609375 -17.390625 C 27.316406 -15.835938 27.671875 -14.164062 27.671875 -12.375 C 27.671875 -10.582031 27.316406 -8.90625 26.609375 -7.34375 C 25.898438 -5.789062 24.925781 -4.425781 23.6875 -3.25 C 22.457031 -2.070312 21.046875 -1.144531 19.453125 -0.46875 C 17.867188 0.195312 16.179688 0.53125 14.390625 0.53125 C 12.597656 0.53125 10.898438 0.195312 9.296875 -0.46875 C 7.691406 -1.144531 6.269531 -2.070312 5.03125 -3.25 C 3.800781 -4.425781 2.832031 -5.789062 2.125 -7.34375 C 1.414062 -8.90625 1.0625 -10.582031 1.0625 -12.375 C 1.0625 -14.164062 1.414062 -15.835938 2.125 -17.390625 C 2.832031 -18.941406 3.800781 -20.3125 5.03125 -21.5 C 6.269531 -22.695312 7.691406 -23.628906 9.296875 -24.296875 C 10.898438 -24.972656 12.597656 -25.3125 14.390625 -25.3125 Z M 14.390625 -5.625 C 15.640625 -5.625 16.773438 -5.921875 17.796875 -6.515625 C 18.816406 -7.117188 19.632812 -7.929688 20.25 -8.953125 C 20.863281 -9.984375 21.171875 -11.125 21.171875 -12.375 C 21.171875 -13.625 20.863281 -14.757812 20.25 -15.78125 C 19.632812 -16.800781 18.816406 -17.617188 17.796875 -18.234375 C 16.773438 -18.847656 15.640625 -19.15625 14.390625 -19.15625 C 13.140625 -19.15625 12 -18.847656 10.96875 -18.234375 C 9.945312 -17.617188 9.128906 -16.800781 8.515625 -15.78125 C 7.898438 -14.757812 7.59375 -13.625 7.59375 -12.375 C 7.59375 -11.125 7.898438 -9.984375 8.515625 -8.953125 C 9.128906 -7.929688 9.945312 -7.117188 10.96875 -6.515625 C 12 -5.921875 13.140625 -5.625 14.390625 -5.625 Z M 14.390625 -5.625 "/></g></g></g><g fill="#ff0000" fill-opacity="1"><g transform="translate(145.433952, 204.931568)"><g><path d="M 20.359375 -19.015625 L 9.265625 -19.015625 L 9.265625 -15.234375 L 19.265625 -15.234375 L 19.265625 -9.5 L 9.265625 -9.5 L 9.265625 0 L 2.46875 0 L 2.46875 -24.734375 L 20.359375 -24.734375 Z M 20.359375 -19.015625 "/></g></g></g><g fill="#ff0000" fill-opacity="1"><g transform="translate(167.55919, 204.931568)"><g><path d="M 21.953125 -24.734375 L 21.953125 -19.015625 L 14.703125 -19.015625 L 14.703125 0 L 7.953125 0 L 7.953125 -19.015625 L 0.703125 -19.015625 L 0.703125 -24.734375 Z M 21.953125 -24.734375 "/></g></g></g><g fill="#ff0000" fill-opacity="1"><g transform="translate(190.214577, 204.931568)"><g><path d="M 18.765625 0 L 17.25 -4.375 L 9.40625 -4.375 L 7.875 0 L 0.359375 0 L 9.6875 -24.734375 L 16.921875 -24.734375 L 26.296875 0 Z M 11.421875 -10.109375 L 15.234375 -10.109375 L 13.328125 -15.546875 Z M 11.421875 -10.109375 "/></g></g></g><g fill="#ff0000" fill-opacity="1"><g transform="translate(216.863825, 204.931568)"><g><path d="M 9.40625 -5.71875 L 19.578125 -5.71875 L 19.578125 0 L 1.40625 0 L 1.40625 -4.984375 L 11.375 -19.015625 L 2.015625 -19.015625 L 2.015625 -24.734375 L 19.296875 -24.734375 L 19.296875 -19.71875 Z M 9.40625 -5.71875 "/></g></g></g><g fill="#00ffff" fill-opacity="1"><g transform="translate(112.943484, 205.937974)"><g><path d="M 14.390625 -25.3125 C 16.179688 -25.3125 17.867188 -24.972656 19.453125 -24.296875 C 21.046875 -23.628906 22.457031 -22.695312 23.6875 -21.5 C 24.925781 -20.3125 25.898438 -18.941406 26.609375 -17.390625 C 27.316406 -15.835938 27.671875 -14.164062 27.671875 -12.375 C 27.671875 -10.582031 27.316406 -8.90625 26.609375 -7.34375 C 25.898438 -5.789062 24.925781 -4.425781 23.6875 -3.25 C 22.457031 -2.070312 21.046875 -1.144531 19.453125 -0.46875 C 17.867188 0.195312 16.179688 0.53125 14.390625 0.53125 C 12.597656 0.53125 10.898438 0.195312 9.296875 -0.46875 C 7.691406 -1.144531 6.269531 -2.070312 5.03125 -3.25 C 3.800781 -4.425781 2.832031 -5.789062 2.125 -7.34375 C 1.414062 -8.90625 1.0625 -10.582031 1.0625 -12.375 C 1.0625 -14.164062 1.414062 -15.835938 2.125 -17.390625 C 2.832031 -18.941406 3.800781 -20.3125 5.03125 -21.5 C 6.269531 -22.695312 7.691406 -23.628906 9.296875 -24.296875 C 10.898438 -24.972656 12.597656 -25.3125 14.390625 -25.3125 Z M 14.390625 -5.625 C 15.640625 -5.625 16.773438 -5.921875 17.796875 -6.515625 C 18.816406 -7.117188 19.632812 -7.929688 20.25 -8.953125 C 20.863281 -9.984375 21.171875 -11.125 21.171875 -12.375 C 21.171875 -13.625 20.863281 -14.757812 20.25 -15.78125 C 19.632812 -16.800781 18.816406 -17.617188 17.796875 -18.234375 C 16.773438 -18.847656 15.640625 -19.15625 14.390625 -19.15625 C 13.140625 -19.15625 12 -18.847656 10.96875 -18.234375 C 9.945312 -17.617188 9.128906 -16.800781 8.515625 -15.78125 C 7.898438 -14.757812 7.59375 -13.625 7.59375 -12.375 C 7.59375 -11.125 7.898438 -9.984375 8.515625 -8.953125 C 9.128906 -7.929688 9.945312 -7.117188 10.96875 -6.515625 C 12 -5.921875 13.140625 -5.625 14.390625 -5.625 Z M 14.390625 -5.625 "/></g></g></g><g fill="#00ffff" fill-opacity="1"><g transform="translate(141.678018, 205.937974)"><g><path d="M 20.359375 -19.015625 L 9.265625 -19.015625 L 9.265625 -15.234375 L 19.265625 -15.234375 L 19.265625 -9.5 L 9.265625 -9.5 L 9.265625 0 L 2.46875 0 L 2.46875 -24.734375 L 20.359375 -24.734375 Z M 20.359375 -19.015625 "/></g></g></g><g fill="#00ffff" fill-opacity="1"><g transform="translate(163.803256, 205.937974)"><g><path d="M 21.953125 -24.734375 L 21.953125 -19.015625 L 14.703125 -19.015625 L 14.703125 0 L 7.953125 0 L 7.953125 -19.015625 L 0.703125 -19.015625 L 0.703125 -24.734375 Z M 21.953125 -24.734375 "/></g></g></g><g fill="#00ffff" fill-opacity="1"><g transform="translate(186.458643, 205.937974)"><g><path d="M 18.765625 0 L 17.25 -4.375 L 9.40625 -4.375 L 7.875 0 L 0.359375 0 L 9.6875 -24.734375 L 16.921875 -24.734375 L 26.296875 0 Z M 11.421875 -10.109375 L 15.234375 -10.109375 L 13.328125 -15.546875 Z M 11.421875 -10.109375 "/></g></g></g><g fill="#00ffff" fill-opacity="1"><g transform="translate(213.107891, 205.937974)"><g><path d="M 9.40625 -5.71875 L 19.578125 -5.71875 L 19.578125 0 L 1.40625 0 L 1.40625 -4.984375 L 11.375 -19.015625 L 2.015625 -19.015625 L 2.015625 -24.734375 L 19.296875 -24.734375 L 19.296875 -19.71875 Z M 9.40625 -5.71875 "/></g></g></g><g fill="#00bf63" fill-opacity="1"><g transform="translate(114.821452, 205.434771)"><g><path d="M 14.390625 -25.3125 C 16.179688 -25.3125 17.867188 -24.972656 19.453125 -24.296875 C 21.046875 -23.628906 22.457031 -22.695312 23.6875 -21.5 C 24.925781 -20.3125 25.898438 -18.941406 26.609375 -17.390625 C 27.316406 -15.835938 27.671875 -14.164062 27.671875 -12.375 C 27.671875 -10.582031 27.316406 -8.90625 26.609375 -7.34375 C 25.898438 -5.789062 24.925781 -4.425781 23.6875 -3.25 C 22.457031 -2.070312 21.046875 -1.144531 19.453125 -0.46875 C 17.867188 0.195312 16.179688 0.53125 14.390625 0.53125 C 12.597656 0.53125 10.898438 0.195312 9.296875 -0.46875 C 7.691406 -1.144531 6.269531 -2.070312 5.03125 -3.25 C 3.800781 -4.425781 2.832031 -5.789062 2.125 -7.34375 C 1.414062 -8.90625 1.0625 -10.582031 1.0625 -12.375 C 1.0625 -14.164062 1.414062 -15.835938 2.125 -17.390625 C 2.832031 -18.941406 3.800781 -20.3125 5.03125 -21.5 C 6.269531 -22.695312 7.691406 -23.628906 9.296875 -24.296875 C 10.898438 -24.972656 12.597656 -25.3125 14.390625 -25.3125 Z M 14.390625 -5.625 C 15.640625 -5.625 16.773438 -5.921875 17.796875 -6.515625 C 18.816406 -7.117188 19.632812 -7.929688 20.25 -8.953125 C 20.863281 -9.984375 21.171875 -11.125 21.171875 -12.375 C 21.171875 -13.625 20.863281 -14.757812 20.25 -15.78125 C 19.632812 -16.800781 18.816406 -17.617188 17.796875 -18.234375 C 16.773438 -18.847656 15.640625 -19.15625 14.390625 -19.15625 C 13.140625 -19.15625 12 -18.847656 10.96875 -18.234375 C 9.945312 -17.617188 9.128906 -16.800781 8.515625 -15.78125 C 7.898438 -14.757812 7.59375 -13.625 7.59375 -12.375 C 7.59375 -11.125 7.898438 -9.984375 8.515625 -8.953125 C 9.128906 -7.929688 9.945312 -7.117188 10.96875 -6.515625 C 12 -5.921875 13.140625 -5.625 14.390625 -5.625 Z M 14.390625 -5.625 "/></g></g></g><g fill="#00bf63" fill-opacity="1"><g transform="translate(143.555986, 205.434771)"><g><path d="M 20.359375 -19.015625 L 9.265625 -19.015625 L 9.265625 -15.234375 L 19.265625 -15.234375 L 19.265625 -9.5 L 9.265625 -9.5 L 9.265625 0 L 2.46875 0 L 2.46875 -24.734375 L 20.359375 -24.734375 Z M 20.359375 -19.015625 "/></g></g></g><g fill="#00bf63" fill-opacity="1"><g transform="translate(165.681224, 205.434771)"><g><path d="M 21.953125 -24.734375 L 21.953125 -19.015625 L 14.703125 -19.015625 L 14.703125 0 L 7.953125 0 L 7.953125 -19.015625 L 0.703125 -19.015625 L 0.703125 -24.734375 Z M 21.953125 -24.734375 "/></g></g></g><g fill="#00bf63" fill-opacity="1"><g transform="translate(188.336611, 205.434771)"><g><path d="M 18.765625 0 L 17.25 -4.375 L 9.40625 -4.375 L 7.875 0 L 0.359375 0 L 9.6875 -24.734375 L 16.921875 -24.734375 L 26.296875 0 Z M 11.421875 -10.109375 L 15.234375 -10.109375 L 13.328125 -15.546875 Z M 11.421875 -10.109375 "/></g></g></g><g fill="#00bf63" fill-opacity="1"><g transform="translate(214.985859, 205.434771)"><g><path d="M 9.40625 -5.71875 L 19.578125 -5.71875 L 19.578125 0 L 1.40625 0 L 1.40625 -4.984375 L 11.375 -19.015625 L 2.015625 -19.015625 L 2.015625 -24.734375 L 19.296875 -24.734375 L 19.296875 -19.71875 Z M 9.40625 -5.71875 "/></g></g></g><g fill="#ff0000" fill-opacity="1"><g transform="translate(172.217308, 228.175737)"><g><path d="M 18.28125 -12.75 L 19.640625 -12.75 L 13.265625 0 L 11.890625 0 L 10.203125 -10.96875 L 4.796875 0 L 3.4375 0 L 1.515625 -12.75 L 2.875 -12.75 L 4.46875 -1.578125 L 9.859375 -12.75 L 11.1875 -12.75 L 12.765625 -1.546875 Z M 18.28125 -12.75 "/></g></g></g><g fill="#ff0000" fill-opacity="1"><g transform="translate(190.823718, 228.175737)"><g><path d="M 9.453125 -11.671875 L 3.8125 -11.671875 L 2.953125 -6.921875 L 7.90625 -6.921875 L 7.71875 -5.90625 L 2.765625 -5.90625 L 1.921875 -1.09375 L 7.578125 -1.09375 L 7.390625 0 L 0.453125 0 L 2.703125 -12.75 L 9.640625 -12.75 Z M 9.453125 -11.671875 "/></g></g></g><g fill="#ff0000" fill-opacity="1"><g transform="translate(200.084436, 228.175737)"><g><path d="M 10.1875 -9.328125 C 10.082031 -8.773438 9.863281 -8.265625 9.53125 -7.796875 C 9.195312 -7.328125 8.78125 -6.9375 8.28125 -6.625 C 8.78125 -6.3125 9.144531 -5.867188 9.375 -5.296875 C 9.613281 -4.734375 9.679688 -4.128906 9.578125 -3.484375 C 9.460938 -2.847656 9.195312 -2.265625 8.78125 -1.734375 C 8.375 -1.203125 7.882812 -0.78125 7.3125 -0.46875 C 6.738281 -0.15625 6.128906 0 5.484375 0 L 0.453125 0 L 2.703125 -12.75 L 7.3125 -12.75 C 7.957031 -12.75 8.515625 -12.597656 8.984375 -12.296875 C 9.453125 -11.992188 9.796875 -11.582031 10.015625 -11.0625 C 10.242188 -10.550781 10.300781 -9.972656 10.1875 -9.328125 Z M 8.921875 -9.359375 C 9.003906 -9.796875 8.96875 -10.179688 8.8125 -10.515625 C 8.65625 -10.859375 8.414062 -11.125 8.09375 -11.3125 C 7.769531 -11.507812 7.394531 -11.609375 6.96875 -11.609375 L 3.78125 -11.609375 L 2.984375 -7.125 L 6.1875 -7.125 C 6.613281 -7.125 7.019531 -7.21875 7.40625 -7.40625 C 7.789062 -7.601562 8.117188 -7.867188 8.390625 -8.203125 C 8.671875 -8.546875 8.847656 -8.929688 8.921875 -9.359375 Z M 6.390625 -5.96875 L 2.78125 -5.96875 L 1.953125 -1.140625 L 5.546875 -1.140625 C 5.972656 -1.140625 6.378906 -1.242188 6.765625 -1.453125 C 7.160156 -1.660156 7.492188 -1.941406 7.765625 -2.296875 C 8.035156 -2.660156 8.207031 -3.050781 8.28125 -3.46875 C 8.351562 -3.894531 8.316406 -4.296875 8.171875 -4.671875 C 8.035156 -5.054688 7.8125 -5.367188 7.5 -5.609375 C 7.1875 -5.847656 6.816406 -5.96875 6.390625 -5.96875 Z M 6.390625 -5.96875 "/></g></g></g><g fill="#ff0000" fill-opacity="1"><g transform="translate(210.670541, 228.175737)"><g/></g></g><g fill="#ff0000" fill-opacity="1"><g transform="translate(216.209985, 228.175737)"><g><path d="M 0.453125 0 L 2.703125 -12.75 L 6.15625 -12.75 C 7.039062 -12.75 7.804688 -12.582031 8.453125 -12.25 C 9.097656 -11.925781 9.617188 -11.472656 10.015625 -10.890625 C 10.421875 -10.304688 10.691406 -9.628906 10.828125 -8.859375 C 10.960938 -8.085938 10.953125 -7.257812 10.796875 -6.375 C 10.648438 -5.488281 10.367188 -4.660156 9.953125 -3.890625 C 9.546875 -3.117188 9.039062 -2.441406 8.4375 -1.859375 C 7.832031 -1.273438 7.144531 -0.816406 6.375 -0.484375 C 5.613281 -0.160156 4.789062 0 3.90625 0 Z M 1.9375 -1.140625 L 4.109375 -1.140625 C 5.054688 -1.140625 5.898438 -1.375 6.640625 -1.84375 C 7.390625 -2.3125 8.015625 -2.941406 8.515625 -3.734375 C 9.015625 -4.535156 9.347656 -5.414062 9.515625 -6.375 C 9.691406 -7.351562 9.671875 -8.238281 9.453125 -9.03125 C 9.234375 -9.820312 8.832031 -10.445312 8.25 -10.90625 C 7.664062 -11.375 6.898438 -11.609375 5.953125 -11.609375 L 3.796875 -11.609375 Z M 1.9375 -1.140625 "/></g></g></g><g fill="#ff0000" fill-opacity="1"><g transform="translate(227.849609, 228.175737)"><g><path d="M 9.453125 -11.671875 L 3.8125 -11.671875 L 2.953125 -6.921875 L 7.90625 -6.921875 L 7.71875 -5.90625 L 2.765625 -5.90625 L 1.921875 -1.09375 L 7.578125 -1.09375 L 7.390625 0 L 0.453125 0 L 2.703125 -12.75 L 9.640625 -12.75 Z M 9.453125 -11.671875 "/></g></g></g><g fill="#ff0000" fill-opacity="1"><g transform="translate(237.110328, 228.175737)"><g><path d="M 11.75 -12.75 L 13.1875 -12.75 L 5.828125 0 L 4.390625 0 L 1.515625 -12.75 L 2.953125 -12.75 L 5.34375 -1.328125 Z M 11.75 -12.75 "/></g></g></g><g fill="#ff0000" fill-opacity="1"><g transform="translate(249.276713, 228.175737)"><g><path d="M 9.453125 -11.671875 L 3.8125 -11.671875 L 2.953125 -6.921875 L 7.90625 -6.921875 L 7.71875 -5.90625 L 2.765625 -5.90625 L 1.921875 -1.09375 L 7.578125 -1.09375 L 7.390625 0 L 0.453125 0 L 2.703125 -12.75 L 9.640625 -12.75 Z M 9.453125 -11.671875 "/></g></g></g><g fill="#ff0000" fill-opacity="1"><g transform="translate(258.537432, 228.175737)"><g><path d="M 0.453125 0 L 2.703125 -12.75 L 3.984375 -12.75 L 1.921875 -1.09375 L 6.703125 -1.09375 L 6.515625 0 Z M 0.453125 0 "/></g></g></g><g fill="#ff0000" fill-opacity="1"><g transform="translate(266.846597, 228.175737)"><g><path d="M 5.921875 0.171875 C 5.015625 0.171875 4.222656 0.00390625 3.546875 -0.328125 C 2.878906 -0.671875 2.335938 -1.144531 1.921875 -1.75 C 1.515625 -2.351562 1.242188 -3.046875 1.109375 -3.828125 C 0.972656 -4.617188 0.984375 -5.46875 1.140625 -6.375 C 1.296875 -7.28125 1.582031 -8.125 2 -8.90625 C 2.425781 -9.695312 2.945312 -10.394531 3.5625 -11 C 4.1875 -11.601562 4.894531 -12.070312 5.6875 -12.40625 C 6.476562 -12.75 7.328125 -12.921875 8.234375 -12.921875 C 9.140625 -12.921875 9.925781 -12.75 10.59375 -12.40625 C 11.257812 -12.070312 11.796875 -11.601562 12.203125 -11 C 12.617188 -10.394531 12.894531 -9.695312 13.03125 -8.90625 C 13.175781 -8.125 13.164062 -7.28125 13 -6.375 C 12.84375 -5.46875 12.554688 -4.617188 12.140625 -3.828125 C 11.722656 -3.046875 11.203125 -2.351562 10.578125 -1.75 C 9.953125 -1.144531 9.242188 -0.671875 8.453125 -0.328125 C 7.671875 0.00390625 6.828125 0.171875 5.921875 0.171875 Z M 6.15625 -1.109375 C 7.125 -1.109375 7.992188 -1.34375 8.765625 -1.8125 C 9.546875 -2.28125 10.191406 -2.910156 10.703125 -3.703125 C 11.210938 -4.503906 11.554688 -5.394531 11.734375 -6.375 C 11.910156 -7.351562 11.882812 -8.238281 11.65625 -9.03125 C 11.425781 -9.832031 11 -10.46875 10.375 -10.9375 C 9.757812 -11.40625 8.960938 -11.640625 7.984375 -11.640625 C 7.015625 -11.640625 6.140625 -11.40625 5.359375 -10.9375 C 4.585938 -10.46875 3.945312 -9.832031 3.4375 -9.03125 C 2.9375 -8.238281 2.59375 -7.351562 2.40625 -6.375 C 2.238281 -5.394531 2.269531 -4.503906 2.5 -3.703125 C 2.738281 -2.910156 3.160156 -2.28125 3.765625 -1.8125 C 4.378906 -1.34375 5.175781 -1.109375 6.15625 -1.109375 Z M 6.15625 -1.109375 "/></g></g></g><g fill="#ff0000" fill-opacity="1"><g transform="translate(280.695195, 228.175737)"><g><path d="M 7.203125 -12.75 C 7.859375 -12.75 8.425781 -12.585938 8.90625 -12.265625 C 9.394531 -11.953125 9.75 -11.523438 9.96875 -10.984375 C 10.1875 -10.453125 10.234375 -9.859375 10.109375 -9.203125 C 9.992188 -8.554688 9.734375 -7.96875 9.328125 -7.4375 C 8.921875 -6.90625 8.421875 -6.484375 7.828125 -6.171875 C 7.242188 -5.867188 6.625 -5.71875 5.96875 -5.71875 L 2.734375 -5.71875 L 1.734375 0 L 0.453125 0 L 2.703125 -12.75 Z M 8.9375 -9.234375 C 9.019531 -9.671875 8.984375 -10.070312 8.828125 -10.4375 C 8.679688 -10.800781 8.445312 -11.085938 8.125 -11.296875 C 7.8125 -11.503906 7.429688 -11.609375 6.984375 -11.609375 L 3.78125 -11.609375 L 2.9375 -6.84375 L 6.140625 -6.84375 C 6.578125 -6.84375 6.992188 -6.945312 7.390625 -7.15625 C 7.796875 -7.375 8.140625 -7.660156 8.421875 -8.015625 C 8.703125 -8.378906 8.875 -8.785156 8.9375 -9.234375 Z M 8.9375 -9.234375 "/></g></g></g><g fill="#ff0000" fill-opacity="1"><g transform="translate(290.771545, 228.175737)"><g><path d="M 13.953125 -12.75 L 15.28125 -12.75 L 13.03125 0 L 11.765625 0 L 13.671875 -10.84375 L 7.328125 -3.3125 L 3.65625 -10.859375 L 1.734375 0 L 0.453125 0 L 2.703125 -12.75 L 4.046875 -12.75 L 7.703125 -5.40625 Z M 13.953125 -12.75 "/></g></g></g><g fill="#ff0000" fill-opacity="1"><g transform="translate(306.234401, 228.175737)"><g><path d="M 9.453125 -11.671875 L 3.8125 -11.671875 L 2.953125 -6.921875 L 7.90625 -6.921875 L 7.71875 -5.90625 L 2.765625 -5.90625 L 1.921875 -1.09375 L 7.578125 -1.09375 L 7.390625 0 L 0.453125 0 L 2.703125 -12.75 L 9.640625 -12.75 Z M 9.453125 -11.671875 "/></g></g></g><g fill="#ff0000" fill-opacity="1"><g transform="translate(315.495119, 228.175737)"><g><path d="M 11.828125 -12.75 L 13.109375 -12.75 L 10.859375 0 L 9.6875 0 L 3.625 -10.703125 L 1.734375 0 L 0.453125 0 L 2.703125 -12.75 L 3.890625 -12.75 L 9.96875 -2.046875 Z M 11.828125 -12.75 "/></g></g></g><g fill="#ff0000" fill-opacity="1"><g transform="translate(328.782979, 228.175737)"><g><path d="M 10.0625 -12.765625 L 9.875 -11.671875 L 6.34375 -11.671875 L 4.28125 -0.015625 L 3.015625 -0.015625 L 5.0625 -11.671875 L 1.53125 -11.671875 L 1.71875 -12.765625 Z M 10.0625 -12.765625 "/></g></g></g><g fill="#00ffff" fill-opacity="1"><g transform="translate(171.131975, 229.223834)"><g><path d="M 18.28125 -12.75 L 19.640625 -12.75 L 13.265625 0 L 11.890625 0 L 10.203125 -10.96875 L 4.796875 0 L 3.4375 0 L 1.515625 -12.75 L 2.875 -12.75 L 4.46875 -1.578125 L 9.859375 -12.75 L 11.1875 -12.75 L 12.765625 -1.546875 Z M 18.28125 -12.75 "/></g></g></g><g fill="#00ffff" fill-opacity="1"><g transform="translate(189.738385, 229.223834)"><g><path d="M 9.453125 -11.671875 L 3.8125 -11.671875 L 2.953125 -6.921875 L 7.90625 -6.921875 L 7.71875 -5.90625 L 2.765625 -5.90625 L 1.921875 -1.09375 L 7.578125 -1.09375 L 7.390625 0 L 0.453125 0 L 2.703125 -12.75 L 9.640625 -12.75 Z M 9.453125 -11.671875 "/></g></g></g><g fill="#00ffff" fill-opacity="1"><g transform="translate(198.999104, 229.223834)"><g><path d="M 10.1875 -9.328125 C 10.082031 -8.773438 9.863281 -8.265625 9.53125 -7.796875 C 9.195312 -7.328125 8.78125 -6.9375 8.28125 -6.625 C 8.78125 -6.3125 9.144531 -5.867188 9.375 -5.296875 C 9.613281 -4.734375 9.679688 -4.128906 9.578125 -3.484375 C 9.460938 -2.847656 9.195312 -2.265625 8.78125 -1.734375 C 8.375 -1.203125 7.882812 -0.78125 7.3125 -0.46875 C 6.738281 -0.15625 6.128906 0 5.484375 0 L 0.453125 0 L 2.703125 -12.75 L 7.3125 -12.75 C 7.957031 -12.75 8.515625 -12.597656 8.984375 -12.296875 C 9.453125 -11.992188 9.796875 -11.582031 10.015625 -11.0625 C 10.242188 -10.550781 10.300781 -9.972656 10.1875 -9.328125 Z M 8.921875 -9.359375 C 9.003906 -9.796875 8.96875 -10.179688 8.8125 -10.515625 C 8.65625 -10.859375 8.414062 -11.125 8.09375 -11.3125 C 7.769531 -11.507812 7.394531 -11.609375 6.96875 -11.609375 L 3.78125 -11.609375 L 2.984375 -7.125 L 6.1875 -7.125 C 6.613281 -7.125 7.019531 -7.21875 7.40625 -7.40625 C 7.789062 -7.601562 8.117188 -7.867188 8.390625 -8.203125 C 8.671875 -8.546875 8.847656 -8.929688 8.921875 -9.359375 Z M 6.390625 -5.96875 L 2.78125 -5.96875 L 1.953125 -1.140625 L 5.546875 -1.140625 C 5.972656 -1.140625 6.378906 -1.242188 6.765625 -1.453125 C 7.160156 -1.660156 7.492188 -1.941406 7.765625 -2.296875 C 8.035156 -2.660156 8.207031 -3.050781 8.28125 -3.46875 C 8.351562 -3.894531 8.316406 -4.296875 8.171875 -4.671875 C 8.035156 -5.054688 7.8125 -5.367188 7.5 -5.609375 C 7.1875 -5.847656 6.816406 -5.96875 6.390625 -5.96875 Z M 6.390625 -5.96875 "/></g></g></g><g fill="#00ffff" fill-opacity="1"><g transform="translate(209.585208, 229.223834)"><g/></g></g><g fill="#00ffff" fill-opacity="1"><g transform="translate(215.124652, 229.223834)"><g><path d="M 0.453125 0 L 2.703125 -12.75 L 6.15625 -12.75 C 7.039062 -12.75 7.804688 -12.582031 8.453125 -12.25 C 9.097656 -11.925781 9.617188 -11.472656 10.015625 -10.890625 C 10.421875 -10.304688 10.691406 -9.628906 10.828125 -8.859375 C 10.960938 -8.085938 10.953125 -7.257812 10.796875 -6.375 C 10.648438 -5.488281 10.367188 -4.660156 9.953125 -3.890625 C 9.546875 -3.117188 9.039062 -2.441406 8.4375 -1.859375 C 7.832031 -1.273438 7.144531 -0.816406 6.375 -0.484375 C 5.613281 -0.160156 4.789062 0 3.90625 0 Z M 1.9375 -1.140625 L 4.109375 -1.140625 C 5.054688 -1.140625 5.898438 -1.375 6.640625 -1.84375 C 7.390625 -2.3125 8.015625 -2.941406 8.515625 -3.734375 C 9.015625 -4.535156 9.347656 -5.414062 9.515625 -6.375 C 9.691406 -7.351562 9.671875 -8.238281 9.453125 -9.03125 C 9.234375 -9.820312 8.832031 -10.445312 8.25 -10.90625 C 7.664062 -11.375 6.898438 -11.609375 5.953125 -11.609375 L 3.796875 -11.609375 Z M 1.9375 -1.140625 "/></g></g></g><g fill="#00ffff" fill-opacity="1"><g transform="translate(226.764277, 229.223834)"><g><path d="M 9.453125 -11.671875 L 3.8125 -11.671875 L 2.953125 -6.921875 L 7.90625 -6.921875 L 7.71875 -5.90625 L 2.765625 -5.90625 L 1.921875 -1.09375 L 7.578125 -1.09375 L 7.390625 0 L 0.453125 0 L 2.703125 -12.75 L 9.640625 -12.75 Z M 9.453125 -11.671875 "/></g></g></g><g fill="#00ffff" fill-opacity="1"><g transform="translate(236.024995, 229.223834)"><g><path d="M 11.75 -12.75 L 13.1875 -12.75 L 5.828125 0 L 4.390625 0 L 1.515625 -12.75 L 2.953125 -12.75 L 5.34375 -1.328125 Z M 11.75 -12.75 "/></g></g></g><g fill="#00ffff" fill-opacity="1"><g transform="translate(248.19138, 229.223834)"><g><path d="M 9.453125 -11.671875 L 3.8125 -11.671875 L 2.953125 -6.921875 L 7.90625 -6.921875 L 7.71875 -5.90625 L 2.765625 -5.90625 L 1.921875 -1.09375 L 7.578125 -1.09375 L 7.390625 0 L 0.453125 0 L 2.703125 -12.75 L 9.640625 -12.75 Z M 9.453125 -11.671875 "/></g></g></g><g fill="#00ffff" fill-opacity="1"><g transform="translate(257.452099, 229.223834)"><g><path d="M 0.453125 0 L 2.703125 -12.75 L 3.984375 -12.75 L 1.921875 -1.09375 L 6.703125 -1.09375 L 6.515625 0 Z M 0.453125 0 "/></g></g></g><g fill="#00ffff" fill-opacity="1"><g transform="translate(265.761264, 229.223834)"><g><path d="M 5.921875 0.171875 C 5.015625 0.171875 4.222656 0.00390625 3.546875 -0.328125 C 2.878906 -0.671875 2.335938 -1.144531 1.921875 -1.75 C 1.515625 -2.351562 1.242188 -3.046875 1.109375 -3.828125 C 0.972656 -4.617188 0.984375 -5.46875 1.140625 -6.375 C 1.296875 -7.28125 1.582031 -8.125 2 -8.90625 C 2.425781 -9.695312 2.945312 -10.394531 3.5625 -11 C 4.1875 -11.601562 4.894531 -12.070312 5.6875 -12.40625 C 6.476562 -12.75 7.328125 -12.921875 8.234375 -12.921875 C 9.140625 -12.921875 9.925781 -12.75 10.59375 -12.40625 C 11.257812 -12.070312 11.796875 -11.601562 12.203125 -11 C 12.617188 -10.394531 12.894531 -9.695312 13.03125 -8.90625 C 13.175781 -8.125 13.164062 -7.28125 13 -6.375 C 12.84375 -5.46875 12.554688 -4.617188 12.140625 -3.828125 C 11.722656 -3.046875 11.203125 -2.351562 10.578125 -1.75 C 9.953125 -1.144531 9.242188 -0.671875 8.453125 -0.328125 C 7.671875 0.00390625 6.828125 0.171875 5.921875 0.171875 Z M 6.15625 -1.109375 C 7.125 -1.109375 7.992188 -1.34375 8.765625 -1.8125 C 9.546875 -2.28125 10.191406 -2.910156 10.703125 -3.703125 C 11.210938 -4.503906 11.554688 -5.394531 11.734375 -6.375 C 11.910156 -7.351562 11.882812 -8.238281 11.65625 -9.03125 C 11.425781 -9.832031 11 -10.46875 10.375 -10.9375 C 9.757812 -11.40625 8.960938 -11.640625 7.984375 -11.640625 C 7.015625 -11.640625 6.140625 -11.40625 5.359375 -10.9375 C 4.585938 -10.46875 3.945312 -9.832031 3.4375 -9.03125 C 2.9375 -8.238281 2.59375 -7.351562 2.40625 -6.375 C 2.238281 -5.394531 2.269531 -4.503906 2.5 -3.703125 C 2.738281 -2.910156 3.160156 -2.28125 3.765625 -1.8125 C 4.378906 -1.34375 5.175781 -1.109375 6.15625 -1.109375 Z M 6.15625 -1.109375 "/></g></g></g><g fill="#00ffff" fill-opacity="1"><g transform="translate(279.609862, 229.223834)"><g><path d="M 7.203125 -12.75 C 7.859375 -12.75 8.425781 -12.585938 8.90625 -12.265625 C 9.394531 -11.953125 9.75 -11.523438 9.96875 -10.984375 C 10.1875 -10.453125 10.234375 -9.859375 10.109375 -9.203125 C 9.992188 -8.554688 9.734375 -7.96875 9.328125 -7.4375 C 8.921875 -6.90625 8.421875 -6.484375 7.828125 -6.171875 C 7.242188 -5.867188 6.625 -5.71875 5.96875 -5.71875 L 2.734375 -5.71875 L 1.734375 0 L 0.453125 0 L 2.703125 -12.75 Z M 8.9375 -9.234375 C 9.019531 -9.671875 8.984375 -10.070312 8.828125 -10.4375 C 8.679688 -10.800781 8.445312 -11.085938 8.125 -11.296875 C 7.8125 -11.503906 7.429688 -11.609375 6.984375 -11.609375 L 3.78125 -11.609375 L 2.9375 -6.84375 L 6.140625 -6.84375 C 6.578125 -6.84375 6.992188 -6.945312 7.390625 -7.15625 C 7.796875 -7.375 8.140625 -7.660156 8.421875 -8.015625 C 8.703125 -8.378906 8.875 -8.785156 8.9375 -9.234375 Z M 8.9375 -9.234375 "/></g></g></g><g fill="#00ffff" fill-opacity="1"><g transform="translate(289.686212, 229.223834)"><g><path d="M 13.953125 -12.75 L 15.28125 -12.75 L 13.03125 0 L 11.765625 0 L 13.671875 -10.84375 L 7.328125 -3.3125 L 3.65625 -10.859375 L 1.734375 0 L 0.453125 0 L 2.703125 -12.75 L 4.046875 -12.75 L 7.703125 -5.40625 Z M 13.953125 -12.75 "/></g></g></g><g fill="#00ffff" fill-opacity="1"><g transform="translate(305.149068, 229.223834)"><g><path d="M 9.453125 -11.671875 L 3.8125 -11.671875 L 2.953125 -6.921875 L 7.90625 -6.921875 L 7.71875 -5.90625 L 2.765625 -5.90625 L 1.921875 -1.09375 L 7.578125 -1.09375 L 7.390625 0 L 0.453125 0 L 2.703125 -12.75 L 9.640625 -12.75 Z M 9.453125 -11.671875 "/></g></g></g><g fill="#00ffff" fill-opacity="1"><g transform="translate(314.409787, 229.223834)"><g><path d="M 11.828125 -12.75 L 13.109375 -12.75 L 10.859375 0 L 9.6875 0 L 3.625 -10.703125 L 1.734375 0 L 0.453125 0 L 2.703125 -12.75 L 3.890625 -12.75 L 9.96875 -2.046875 Z M 11.828125 -12.75 "/></g></g></g><g fill="#00ffff" fill-opacity="1"><g transform="translate(327.697647, 229.223834)"><g><path d="M 10.0625 -12.765625 L 9.875 -11.671875 L 6.34375 -11.671875 L 4.28125 -0.015625 L 3.015625 -0.015625 L 5.0625 -11.671875 L 1.53125 -11.671875 L 1.71875 -12.765625 Z M 10.0625 -12.765625 "/></g></g></g><g fill="#00bf63" fill-opacity="1"><g transform="translate(171.674642, 228.699784)"><g><path d="M 18.28125 -12.75 L 19.640625 -12.75 L 13.265625 0 L 11.890625 0 L 10.203125 -10.96875 L 4.796875 0 L 3.4375 0 L 1.515625 -12.75 L 2.875 -12.75 L 4.46875 -1.578125 L 9.859375 -12.75 L 11.1875 -12.75 L 12.765625 -1.546875 Z M 18.28125 -12.75 "/></g></g></g><g fill="#00bf63" fill-opacity="1"><g transform="translate(190.281051, 228.699784)"><g><path d="M 9.453125 -11.671875 L 3.8125 -11.671875 L 2.953125 -6.921875 L 7.90625 -6.921875 L 7.71875 -5.90625 L 2.765625 -5.90625 L 1.921875 -1.09375 L 7.578125 -1.09375 L 7.390625 0 L 0.453125 0 L 2.703125 -12.75 L 9.640625 -12.75 Z M 9.453125 -11.671875 "/></g></g></g><g fill="#00bf63" fill-opacity="1"><g transform="translate(199.54177, 228.699784)"><g><path d="M 10.1875 -9.328125 C 10.082031 -8.773438 9.863281 -8.265625 9.53125 -7.796875 C 9.195312 -7.328125 8.78125 -6.9375 8.28125 -6.625 C 8.78125 -6.3125 9.144531 -5.867188 9.375 -5.296875 C 9.613281 -4.734375 9.679688 -4.128906 9.578125 -3.484375 C 9.460938 -2.847656 9.195312 -2.265625 8.78125 -1.734375 C 8.375 -1.203125 7.882812 -0.78125 7.3125 -0.46875 C 6.738281 -0.15625 6.128906 0 5.484375 0 L 0.453125 0 L 2.703125 -12.75 L 7.3125 -12.75 C 7.957031 -12.75 8.515625 -12.597656 8.984375 -12.296875 C 9.453125 -11.992188 9.796875 -11.582031 10.015625 -11.0625 C 10.242188 -10.550781 10.300781 -9.972656 10.1875 -9.328125 Z M 8.921875 -9.359375 C 9.003906 -9.796875 8.96875 -10.179688 8.8125 -10.515625 C 8.65625 -10.859375 8.414062 -11.125 8.09375 -11.3125 C 7.769531 -11.507812 7.394531 -11.609375 6.96875 -11.609375 L 3.78125 -11.609375 L 2.984375 -7.125 L 6.1875 -7.125 C 6.613281 -7.125 7.019531 -7.21875 7.40625 -7.40625 C 7.789062 -7.601562 8.117188 -7.867188 8.390625 -8.203125 C 8.671875 -8.546875 8.847656 -8.929688 8.921875 -9.359375 Z M 6.390625 -5.96875 L 2.78125 -5.96875 L 1.953125 -1.140625 L 5.546875 -1.140625 C 5.972656 -1.140625 6.378906 -1.242188 6.765625 -1.453125 C 7.160156 -1.660156 7.492188 -1.941406 7.765625 -2.296875 C 8.035156 -2.660156 8.207031 -3.050781 8.28125 -3.46875 C 8.351562 -3.894531 8.316406 -4.296875 8.171875 -4.671875 C 8.035156 -5.054688 7.8125 -5.367188 7.5 -5.609375 C 7.1875 -5.847656 6.816406 -5.96875 6.390625 -5.96875 Z M 6.390625 -5.96875 "/></g></g></g><g fill="#00bf63" fill-opacity="1"><g transform="translate(210.127875, 228.699784)"><g/></g></g><g fill="#00bf63" fill-opacity="1"><g transform="translate(215.667318, 228.699784)"><g><path d="M 0.453125 0 L 2.703125 -12.75 L 6.15625 -12.75 C 7.039062 -12.75 7.804688 -12.582031 8.453125 -12.25 C 9.097656 -11.925781 9.617188 -11.472656 10.015625 -10.890625 C 10.421875 -10.304688 10.691406 -9.628906 10.828125 -8.859375 C 10.960938 -8.085938 10.953125 -7.257812 10.796875 -6.375 C 10.648438 -5.488281 10.367188 -4.660156 9.953125 -3.890625 C 9.546875 -3.117188 9.039062 -2.441406 8.4375 -1.859375 C 7.832031 -1.273438 7.144531 -0.816406 6.375 -0.484375 C 5.613281 -0.160156 4.789062 0 3.90625 0 Z M 1.9375 -1.140625 L 4.109375 -1.140625 C 5.054688 -1.140625 5.898438 -1.375 6.640625 -1.84375 C 7.390625 -2.3125 8.015625 -2.941406 8.515625 -3.734375 C 9.015625 -4.535156 9.347656 -5.414062 9.515625 -6.375 C 9.691406 -7.351562 9.671875 -8.238281 9.453125 -9.03125 C 9.234375 -9.820312 8.832031 -10.445312 8.25 -10.90625 C 7.664062 -11.375 6.898438 -11.609375 5.953125 -11.609375 L 3.796875 -11.609375 Z M 1.9375 -1.140625 "/></g></g></g><g fill="#00bf63" fill-opacity="1"><g transform="translate(227.306943, 228.699784)"><g><path d="M 9.453125 -11.671875 L 3.8125 -11.671875 L 2.953125 -6.921875 L 7.90625 -6.921875 L 7.71875 -5.90625 L 2.765625 -5.90625 L 1.921875 -1.09375 L 7.578125 -1.09375 L 7.390625 0 L 0.453125 0 L 2.703125 -12.75 L 9.640625 -12.75 Z M 9.453125 -11.671875 "/></g></g></g><g fill="#00bf63" fill-opacity="1"><g transform="translate(236.567662, 228.699784)"><g><path d="M 11.75 -12.75 L 13.1875 -12.75 L 5.828125 0 L 4.390625 0 L 1.515625 -12.75 L 2.953125 -12.75 L 5.34375 -1.328125 Z M 11.75 -12.75 "/></g></g></g><g fill="#00bf63" fill-opacity="1"><g transform="translate(248.734047, 228.699784)"><g><path d="M 9.453125 -11.671875 L 3.8125 -11.671875 L 2.953125 -6.921875 L 7.90625 -6.921875 L 7.71875 -5.90625 L 2.765625 -5.90625 L 1.921875 -1.09375 L 7.578125 -1.09375 L 7.390625 0 L 0.453125 0 L 2.703125 -12.75 L 9.640625 -12.75 Z M 9.453125 -11.671875 "/></g></g></g><g fill="#00bf63" fill-opacity="1"><g transform="translate(257.994765, 228.699784)"><g><path d="M 0.453125 0 L 2.703125 -12.75 L 3.984375 -12.75 L 1.921875 -1.09375 L 6.703125 -1.09375 L 6.515625 0 Z M 0.453125 0 "/></g></g></g><g fill="#00bf63" fill-opacity="1"><g transform="translate(266.303931, 228.699784)"><g><path d="M 5.921875 0.171875 C 5.015625 0.171875 4.222656 0.00390625 3.546875 -0.328125 C 2.878906 -0.671875 2.335938 -1.144531 1.921875 -1.75 C 1.515625 -2.351562 1.242188 -3.046875 1.109375 -3.828125 C 0.972656 -4.617188 0.984375 -5.46875 1.140625 -6.375 C 1.296875 -7.28125 1.582031 -8.125 2 -8.90625 C 2.425781 -9.695312 2.945312 -10.394531 3.5625 -11 C 4.1875 -11.601562 4.894531 -12.070312 5.6875 -12.40625 C 6.476562 -12.75 7.328125 -12.921875 8.234375 -12.921875 C 9.140625 -12.921875 9.925781 -12.75 10.59375 -12.40625 C 11.257812 -12.070312 11.796875 -11.601562 12.203125 -11 C 12.617188 -10.394531 12.894531 -9.695312 13.03125 -8.90625 C 13.175781 -8.125 13.164062 -7.28125 13 -6.375 C 12.84375 -5.46875 12.554688 -4.617188 12.140625 -3.828125 C 11.722656 -3.046875 11.203125 -2.351562 10.578125 -1.75 C 9.953125 -1.144531 9.242188 -0.671875 8.453125 -0.328125 C 7.671875 0.00390625 6.828125 0.171875 5.921875 0.171875 Z M 6.15625 -1.109375 C 7.125 -1.109375 7.992188 -1.34375 8.765625 -1.8125 C 9.546875 -2.28125 10.191406 -2.910156 10.703125 -3.703125 C 11.210938 -4.503906 11.554688 -5.394531 11.734375 -6.375 C 11.910156 -7.351562 11.882812 -8.238281 11.65625 -9.03125 C 11.425781 -9.832031 11 -10.46875 10.375 -10.9375 C 9.757812 -11.40625 8.960938 -11.640625 7.984375 -11.640625 C 7.015625 -11.640625 6.140625 -11.40625 5.359375 -10.9375 C 4.585938 -10.46875 3.945312 -9.832031 3.4375 -9.03125 C 2.9375 -8.238281 2.59375 -7.351562 2.40625 -6.375 C 2.238281 -5.394531 2.269531 -4.503906 2.5 -3.703125 C 2.738281 -2.910156 3.160156 -2.28125 3.765625 -1.8125 C 4.378906 -1.34375 5.175781 -1.109375 6.15625 -1.109375 Z M 6.15625 -1.109375 "/></g></g></g><g fill="#00bf63" fill-opacity="1"><g transform="translate(280.152528, 228.699784)"><g><path d="M 7.203125 -12.75 C 7.859375 -12.75 8.425781 -12.585938 8.90625 -12.265625 C 9.394531 -11.953125 9.75 -11.523438 9.96875 -10.984375 C 10.1875 -10.453125 10.234375 -9.859375 10.109375 -9.203125 C 9.992188 -8.554688 9.734375 -7.96875 9.328125 -7.4375 C 8.921875 -6.90625 8.421875 -6.484375 7.828125 -6.171875 C 7.242188 -5.867188 6.625 -5.71875 5.96875 -5.71875 L 2.734375 -5.71875 L 1.734375 0 L 0.453125 0 L 2.703125 -12.75 Z M 8.9375 -9.234375 C 9.019531 -9.671875 8.984375 -10.070312 8.828125 -10.4375 C 8.679688 -10.800781 8.445312 -11.085938 8.125 -11.296875 C 7.8125 -11.503906 7.429688 -11.609375 6.984375 -11.609375 L 3.78125 -11.609375 L 2.9375 -6.84375 L 6.140625 -6.84375 C 6.578125 -6.84375 6.992188 -6.945312 7.390625 -7.15625 C 7.796875 -7.375 8.140625 -7.660156 8.421875 -8.015625 C 8.703125 -8.378906 8.875 -8.785156 8.9375 -9.234375 Z M 8.9375 -9.234375 "/></g></g></g><g fill="#00bf63" fill-opacity="1"><g transform="translate(290.228879, 228.699784)"><g><path d="M 13.953125 -12.75 L 15.28125 -12.75 L 13.03125 0 L 11.765625 0 L 13.671875 -10.84375 L 7.328125 -3.3125 L 3.65625 -10.859375 L 1.734375 0 L 0.453125 0 L 2.703125 -12.75 L 4.046875 -12.75 L 7.703125 -5.40625 Z M 13.953125 -12.75 "/></g></g></g><g fill="#00bf63" fill-opacity="1"><g transform="translate(305.691734, 228.699784)"><g><path d="M 9.453125 -11.671875 L 3.8125 -11.671875 L 2.953125 -6.921875 L 7.90625 -6.921875 L 7.71875 -5.90625 L 2.765625 -5.90625 L 1.921875 -1.09375 L 7.578125 -1.09375 L 7.390625 0 L 0.453125 0 L 2.703125 -12.75 L 9.640625 -12.75 Z M 9.453125 -11.671875 "/></g></g></g><g fill="#00bf63" fill-opacity="1"><g transform="translate(314.952453, 228.699784)"><g><path d="M 11.828125 -12.75 L 13.109375 -12.75 L 10.859375 0 L 9.6875 0 L 3.625 -10.703125 L 1.734375 0 L 0.453125 0 L 2.703125 -12.75 L 3.890625 -12.75 L 9.96875 -2.046875 Z M 11.828125 -12.75 "/></g></g></g><g fill="#00bf63" fill-opacity="1"><g transform="translate(328.240313, 228.699784)"><g><path d="M 10.0625 -12.765625 L 9.875 -11.671875 L 6.34375 -11.671875 L 4.28125 -0.015625 L 3.015625 -0.015625 L 5.0625 -11.671875 L 1.53125 -11.671875 L 1.71875 -12.765625 Z M 10.0625 -12.765625 "/></g></g></g></svg>