<svg xmlns="http://www.w3.org/2000/svg" xmlns:xlink="http://www.w3.org/1999/xlink" width="500" zoomAndPan="magnify" viewBox="0 0 375 374.999991" height="500" preserveAspectRatio="xMidYMid meet" version="1.0"><defs><g/><clipPath id="39b231c502"><path d="M 172.800781 99.6875 L 333.851562 99.6875 L 333.851562 260.738281 L 172.800781 260.738281 Z M 172.800781 99.6875 " clip-rule="nonzero"/></clipPath><clipPath id="4914311ef0"><path d="M 66.957031 205.117188 L 337.5 205.117188 L 337.5 208.441406 L 66.957031 208.441406 Z M 66.957031 205.117188 " clip-rule="nonzero"/></clipPath></defs><rect x="-37.5" width="450" fill="#ffffff" y="-37.499999" height="449.999989" fill-opacity="1"/><rect x="-37.5" width="450" fill="#000000" y="-37.499999" height="449.999989" fill-opacity="1"/><g clip-path="url(#39b231c502)"><path stroke-linecap="butt" transform="matrix(0.75, 0, 0, 0.75, 172.801356, 99.689429)" fill="none" stroke-linejoin="miter" d="M -0.000766804 -0.0025726 L 214.733609 -0.0025726 L 214.733609 214.731803 L -0.000766804 214.731803 Z M -0.000766804 -0.0025726 " stroke="#000000" stroke-width="2" stroke-opacity="1" stroke-miterlimit="4"/></g><g clip-path="url(#4914311ef0)"><path fill="#00bf63" d="M 66.957031 205.117188 L 337.5 205.117188 L 337.5 208.441406 L 66.957031 208.441406 Z M 66.957031 205.117188 " fill-opacity="1" fill-rule="nonzero"/></g><g fill="#ff0000" fill-opacity="1"><g transform="translate(81.52653, 200.374602)"><g><path d="M 57.109375 -100.46875 C 64.222656 -100.46875 70.9375 -99.132812 77.25 -96.46875 C 83.5625 -93.800781 89.171875 -90.101562 94.078125 -85.375 C 98.992188 -80.65625 102.851562 -75.207031 105.65625 -69.03125 C 108.46875 -62.863281 109.875 -56.222656 109.875 -49.109375 C 109.875 -42.003906 108.46875 -35.363281 105.65625 -29.1875 C 102.851562 -23.007812 98.992188 -17.582031 94.078125 -12.90625 C 89.171875 -8.226562 83.5625 -4.554688 77.25 -1.890625 C 70.9375 0.773438 64.222656 2.109375 57.109375 2.109375 C 50.003906 2.109375 43.269531 0.773438 36.90625 -1.890625 C 30.539062 -4.554688 24.898438 -8.226562 19.984375 -12.90625 C 15.078125 -17.582031 11.21875 -23.007812 8.40625 -29.1875 C 5.601562 -35.363281 4.203125 -42.003906 4.203125 -49.109375 C 4.203125 -56.222656 5.601562 -62.863281 8.40625 -69.03125 C 11.21875 -75.207031 15.078125 -80.65625 19.984375 -85.375 C 24.898438 -90.101562 30.539062 -93.800781 36.90625 -96.46875 C 43.269531 -99.132812 50.003906 -100.46875 57.109375 -100.46875 Z M 57.109375 -22.3125 C 62.066406 -22.3125 66.582031 -23.503906 70.65625 -25.890625 C 74.726562 -28.273438 77.976562 -31.5 80.40625 -35.5625 C 82.84375 -39.632812 84.0625 -44.148438 84.0625 -49.109375 C 84.0625 -54.066406 82.84375 -58.582031 80.40625 -62.65625 C 77.976562 -66.726562 74.726562 -69.976562 70.65625 -72.40625 C 66.582031 -74.84375 62.066406 -76.0625 57.109375 -76.0625 C 52.148438 -76.0625 47.632812 -74.84375 43.5625 -72.40625 C 39.5 -69.976562 36.25 -66.726562 33.8125 -62.65625 C 31.382812 -58.582031 30.171875 -54.066406 30.171875 -49.109375 C 30.171875 -44.148438 31.382812 -39.632812 33.8125 -35.5625 C 36.25 -31.5 39.5 -28.273438 43.5625 -25.890625 C 47.632812 -23.503906 52.148438 -22.3125 57.109375 -22.3125 Z M 57.109375 -22.3125 "/></g></g></g><g fill="#ff0000" fill-opacity="1"><g transform="translate(195.616519, 200.374602)"><g><path d="M 37.328125 -22.734375 L 77.734375 -22.734375 L 77.734375 0 L 5.609375 0 L 5.609375 -19.78125 L 45.1875 -75.5 L 8 -75.5 L 8 -98.234375 L 76.625 -98.234375 L 76.625 -78.296875 Z M 37.328125 -22.734375 "/></g></g></g><g fill="#00ffff" fill-opacity="1"><g transform="translate(66.615947, 204.369882)"><g><path d="M 57.109375 -100.46875 C 64.222656 -100.46875 70.9375 -99.132812 77.25 -96.46875 C 83.5625 -93.800781 89.171875 -90.101562 94.078125 -85.375 C 98.992188 -80.65625 102.851562 -75.207031 105.65625 -69.03125 C 108.46875 -62.863281 109.875 -56.222656 109.875 -49.109375 C 109.875 -42.003906 108.46875 -35.363281 105.65625 -29.1875 C 102.851562 -23.007812 98.992188 -17.582031 94.078125 -12.90625 C 89.171875 -8.226562 83.5625 -4.554688 77.25 -1.890625 C 70.9375 0.773438 64.222656 2.109375 57.109375 2.109375 C 50.003906 2.109375 43.269531 0.773438 36.90625 -1.890625 C 30.539062 -4.554688 24.898438 -8.226562 19.984375 -12.90625 C 15.078125 -17.582031 11.21875 -23.007812 8.40625 -29.1875 C 5.601562 -35.363281 4.203125 -42.003906 4.203125 -49.109375 C 4.203125 -56.222656 5.601562 -62.863281 8.40625 -69.03125 C 11.21875 -75.207031 15.078125 -80.65625 19.984375 -85.375 C 24.898438 -90.101562 30.539062 -93.800781 36.90625 -96.46875 C 43.269531 -99.132812 50.003906 -100.46875 57.109375 -100.46875 Z M 57.109375 -22.3125 C 62.066406 -22.3125 66.582031 -23.503906 70.65625 -25.890625 C 74.726562 -28.273438 77.976562 -31.5 80.40625 -35.5625 C 82.84375 -39.632812 84.0625 -44.148438 84.0625 -49.109375 C 84.0625 -54.066406 82.84375 -58.582031 80.40625 -62.65625 C 77.976562 -66.726562 74.726562 -69.976562 70.65625 -72.40625 C 66.582031 -74.84375 62.066406 -76.0625 57.109375 -76.0625 C 52.148438 -76.0625 47.632812 -74.84375 43.5625 -72.40625 C 39.5 -69.976562 36.25 -66.726562 33.8125 -62.65625 C 31.382812 -58.582031 30.171875 -54.066406 30.171875 -49.109375 C 30.171875 -44.148438 31.382812 -39.632812 33.8125 -35.5625 C 36.25 -31.5 39.5 -28.273438 43.5625 -25.890625 C 47.632812 -23.503906 52.148438 -22.3125 57.109375 -22.3125 Z M 57.109375 -22.3125 "/></g></g></g><g fill="#00ffff" fill-opacity="1"><g transform="translate(180.705936, 204.369882)"><g><path d="M 37.328125 -22.734375 L 77.734375 -22.734375 L 77.734375 0 L 5.609375 0 L 5.609375 -19.78125 L 45.1875 -75.5 L 8 -75.5 L 8 -98.234375 L 76.625 -98.234375 L 76.625 -78.296875 Z M 37.328125 -22.734375 "/></g></g></g><g fill="#00bf63" fill-opacity="1"><g transform="translate(74.071239, 202.372242)"><g><path d="M 57.109375 -100.46875 C 64.222656 -100.46875 70.9375 -99.132812 77.25 -96.46875 C 83.5625 -93.800781 89.171875 -90.101562 94.078125 -85.375 C 98.992188 -80.65625 102.851562 -75.207031 105.65625 -69.03125 C 108.46875 -62.863281 109.875 -56.222656 109.875 -49.109375 C 109.875 -42.003906 108.46875 -35.363281 105.65625 -29.1875 C 102.851562 -23.007812 98.992188 -17.582031 94.078125 -12.90625 C 89.171875 -8.226562 83.5625 -4.554688 77.25 -1.890625 C 70.9375 0.773438 64.222656 2.109375 57.109375 2.109375 C 50.003906 2.109375 43.269531 0.773438 36.90625 -1.890625 C 30.539062 -4.554688 24.898438 -8.226562 19.984375 -12.90625 C 15.078125 -17.582031 11.21875 -23.007812 8.40625 -29.1875 C 5.601562 -35.363281 4.203125 -42.003906 4.203125 -49.109375 C 4.203125 -56.222656 5.601562 -62.863281 8.40625 -69.03125 C 11.21875 -75.207031 15.078125 -80.65625 19.984375 -85.375 C 24.898438 -90.101562 30.539062 -93.800781 36.90625 -96.46875 C 43.269531 -99.132812 50.003906 -100.46875 57.109375 -100.46875 Z M 57.109375 -22.3125 C 62.066406 -22.3125 66.582031 -23.503906 70.65625 -25.890625 C 74.726562 -28.273438 77.976562 -31.5 80.40625 -35.5625 C 82.84375 -39.632812 84.0625 -44.148438 84.0625 -49.109375 C 84.0625 -54.066406 82.84375 -58.582031 80.40625 -62.65625 C 77.976562 -66.726562 74.726562 -69.976562 70.65625 -72.40625 C 66.582031 -74.84375 62.066406 -76.0625 57.109375 -76.0625 C 52.148438 -76.0625 47.632812 -74.84375 43.5625 -72.40625 C 39.5 -69.976562 36.25 -66.726562 33.8125 -62.65625 C 31.382812 -58.582031 30.171875 -54.066406 30.171875 -49.109375 C 30.171875 -44.148438 31.382812 -39.632812 33.8125 -35.5625 C 36.25 -31.5 39.5 -28.273438 43.5625 -25.890625 C 47.632812 -23.503906 52.148438 -22.3125 57.109375 -22.3125 Z M 57.109375 -22.3125 "/></g></g></g><g fill="#00bf63" fill-opacity="1"><g transform="translate(188.161228, 202.372242)"><g><path d="M 37.328125 -22.734375 L 77.734375 -22.734375 L 77.734375 0 L 5.609375 0 L 5.609375 -19.78125 L 45.1875 -75.5 L 8 -75.5 L 8 -98.234375 L 76.625 -98.234375 L 76.625 -78.296875 Z M 37.328125 -22.734375 "/></g></g></g></svg>